<?xml version="1.0" encoding="UTF-8"?>
<svg version="1.1" xmlns="http://www.w3.org/2000/svg" width="1024" height="1024">
<path d="M0 0 C337.92 0 675.84 0 1024 0 C1024 337.92 1024 675.84 1024 1024 C686.08 1024 348.16 1024 0 1024 C0 686.08 0 348.16 0 0 Z " fill="#FDFDFD" transform="translate(0,0)"/>
<path d="M0 0 C4.00118254 1.6174002 7.75915146 3.65479469 11.5625 5.6875 C13.90979462 6.89831115 16.25875916 8.10424228 18.61328125 9.30078125 C19.52453262 9.76466248 19.52453262 9.76466248 20.45419312 10.23791504 C61.96498513 31.21584778 107.06678517 46.35665289 150.875 61.75 C151.75178406 62.05890167 152.62856812 62.36780334 153.53192139 62.68606567 C156.0173108 63.56030042 158.5043884 64.42952454 160.9921875 65.296875 C161.7301355 65.5566362 162.4680835 65.8163974 163.22839355 66.08403015 C166.79371368 67.31985734 170.27381281 68.38306351 174 69 C174.144375 68.360625 174.28875 67.72125 174.4375 67.0625 C175 65 175 65 176 64 C179.97275815 63.74743123 183.95766175 63.81477549 187.9375 63.8125 C189.06091797 63.80025391 190.18433594 63.78800781 191.34179688 63.77539062 C192.94958008 63.77249023 192.94958008 63.77249023 194.58984375 63.76953125 C196.07278931 63.76336792 196.07278931 63.76336792 197.58569336 63.75708008 C200 64 200 64 202 66 C203.52149117 75.98892026 202.92308202 85.98811042 202 96 C205.64548133 98.30576694 208.75210978 98.23699872 213 98.1875 C214.216875 98.18105469 215.43375 98.17460937 216.6875 98.16796875 C219.36131292 98.03238626 221.45270739 97.69544141 224 97 C224.02505615 97.69150146 224.0501123 98.38300293 224.07592773 99.09545898 C224.19152161 102.20967866 224.31441242 105.32356789 224.4375 108.4375 C224.49647461 110.07041992 224.49647461 110.07041992 224.55664062 111.73632812 C224.59853516 112.77080078 224.64042969 113.80527344 224.68359375 114.87109375 C224.72025146 115.82943115 224.75690918 116.78776855 224.79467773 117.77514648 C224.75834424 119.97138925 224.75834424 119.97138925 226 121 C227.70563778 121.15740605 229.41727244 121.25093392 231.12890625 121.31640625 C232.16337891 121.35830078 233.19785156 121.40019531 234.26367188 121.44335938 C235.35228516 121.48267578 236.44089844 121.52199219 237.5625 121.5625 C238.65498047 121.60568359 239.74746094 121.64886719 240.87304688 121.69335938 C243.58189564 121.79982068 246.29083992 121.90183516 249 122 C249.98944652 189.52591975 243.24112426 254.30129829 221.9375 318.625 C221.6879657 319.38041077 221.4384314 320.13582153 221.18133545 320.91412354 C217.80287605 331.10227713 214.06749799 341.06690993 210 351 C209.34282628 352.69234992 208.68647402 354.38501926 208.03125 356.078125 C205.48338344 362.43730635 202.48834636 368.58886018 199.5 374.75 C199.19320313 375.38350372 198.88640625 376.01700745 198.5703125 376.66970825 C186.41298289 401.71868964 172.60426207 425.61315911 156 448 C155.03513565 449.31639115 154.07029286 450.63279811 153.10546875 451.94921875 C147.19513884 459.96485914 141.04391474 467.6749688 134.51660156 475.19628906 C133.39877016 476.52573825 132.31120857 477.88078104 131.24121094 479.24902344 C124.6830303 487.56313429 117.32779456 494.97644499 109.82617188 502.43457031 C107.6291716 504.62084876 105.44307322 506.81761938 103.2578125 509.015625 C96.50690275 515.77260541 89.77214018 522.33460447 82.24291992 528.22851562 C79.96826773 530.02506252 77.82558449 531.91889681 75.6875 533.875 C58.23737604 549.48180101 38.52652393 562.42205138 18.51757812 574.47167969 C16.03228484 575.98040117 13.56975325 577.52136992 11.109375 579.0703125 C9.59422874 580.005984 8.07862777 580.94091974 6.5625 581.875 C5.88292236 582.31038086 5.20334473 582.74576172 4.50317383 583.19433594 C1.54408151 584.98627839 -0.39272383 586.04612613 -3.89282227 585.78027344 C-7.13143103 584.96699508 -9.42769164 583.86760667 -12.28125 582.1484375 C-13.27713135 581.55200439 -14.2730127 580.95557129 -15.29907227 580.34106445 C-16.35537842 579.69226318 -17.41168457 579.04346191 -18.5 578.375 C-19.60206787 577.7049292 -20.70413574 577.0348584 -21.83959961 576.34448242 C-42.52039636 563.65261239 -62.46749253 549.68135248 -81 534 C-81.58136719 533.50886719 -82.16273438 533.01773438 -82.76171875 532.51171875 C-90.0658394 526.32204125 -97.13238831 520.04321807 -103.81640625 513.18359375 C-105.76589894 511.23410106 -107.76193807 509.45486672 -109.875 507.6875 C-115.20982221 503.11633178 -119.81434256 497.83909968 -124.51708984 492.63574219 C-125.89453326 491.11633637 -127.28465299 489.60844888 -128.67578125 488.1015625 C-133.8910641 482.44018236 -138.90276991 476.6614619 -143.69384766 470.63623047 C-144.61270294 469.48517101 -145.53740047 468.33876299 -146.46630859 467.19580078 C-176.84619741 429.77839049 -200.64468014 386.87422147 -218 342 C-218.46164551 340.81293457 -218.92329102 339.62586914 -219.39892578 338.40283203 C-224.41582191 325.42322581 -229.09040299 312.46609764 -232.49853516 298.96728516 C-233.31113378 295.77939826 -234.19522168 292.6108747 -235.0625 289.4375 C-238.80465662 275.25369665 -241.92105288 260.98961187 -244.5625 246.5625 C-244.71407562 245.73651306 -244.86565125 244.91052612 -245.02182007 244.05950928 C-251.85947019 206.56481051 -253.33702596 169.12552483 -253.1373291 131.10845947 C-253.11637489 126.67519138 -253.10763272 122.24189773 -253.09765625 117.80859375 C-253.07660034 109.20566296 -253.04275636 100.60285029 -253 92 C-252.07604431 91.69242264 -252.07604431 91.69242264 -251.13342285 91.37863159 C-250.32433472 91.10914703 -249.51524658 90.83966248 -248.68164062 90.56201172 C-247.47924744 90.16162186 -247.47924744 90.16162186 -246.25256348 89.75314331 C-244.53089459 89.1775043 -242.81174284 88.59433156 -241.09375 88.0078125 C-236.30302912 86.37723581 -231.50033235 84.83652056 -226.63487244 83.44287109 C-214.46582004 79.95052717 -202.46086567 75.95892419 -190.4375 72 C-186.18668925 70.60266688 -181.93536251 69.20691532 -177.68359375 67.8125 C-176.15526917 67.31108742 -176.15526917 67.31108742 -174.59606934 66.79954529 C-167.54398668 64.49128233 -160.47341826 62.2521097 -153.38598633 60.05517578 C-148.6146037 58.5682686 -143.86649232 57.01675881 -139.125 55.4375 C-138.279375 55.15970703 -137.43375 54.88191406 -136.5625 54.59570312 C-131.44828593 52.89487505 -126.44005732 51.01911328 -121.44775391 48.98901367 C-117.53154247 47.40667051 -113.57635771 45.92932711 -109.625 44.4375 C-75.43388952 31.43454987 -41.22522543 17.9797438 -8.83422852 0.85498047 C-5.8015421 -0.55863165 -3.21468333 -0.63320637 0 0 Z " fill="#0172DD" transform="translate(515,213)"/>
<path d="M0 0 C4.00118254 1.6174002 7.75915146 3.65479469 11.5625 5.6875 C13.90979462 6.89831115 16.25875916 8.10424228 18.61328125 9.30078125 C19.52453262 9.76466248 19.52453262 9.76466248 20.45419312 10.23791504 C61.96498513 31.21584778 107.06678517 46.35665289 150.875 61.75 C151.75178406 62.05890167 152.62856812 62.36780334 153.53192139 62.68606567 C156.0173108 63.56030042 158.5043884 64.42952454 160.9921875 65.296875 C161.7301355 65.5566362 162.4680835 65.8163974 163.22839355 66.08403015 C166.79371368 67.31985734 170.27381281 68.38306351 174 69 C174.144375 68.360625 174.28875 67.72125 174.4375 67.0625 C175 65 175 65 176 64 C179.97275815 63.74743123 183.95766175 63.81477549 187.9375 63.8125 C189.06091797 63.80025391 190.18433594 63.78800781 191.34179688 63.77539062 C192.94958008 63.77249023 192.94958008 63.77249023 194.58984375 63.76953125 C196.07278931 63.76336792 196.07278931 63.76336792 197.58569336 63.75708008 C200 64 200 64 202 66 C203.52149117 75.98892026 202.92308202 85.98811042 202 96 C205.64548133 98.30576694 208.75210978 98.23699872 213 98.1875 C214.216875 98.18105469 215.43375 98.17460937 216.6875 98.16796875 C219.36131292 98.03238626 221.45270739 97.69544141 224 97 C224.02505615 97.69150146 224.0501123 98.38300293 224.07592773 99.09545898 C224.19152161 102.20967866 224.31441242 105.32356789 224.4375 108.4375 C224.49647461 110.07041992 224.49647461 110.07041992 224.55664062 111.73632812 C224.59853516 112.77080078 224.64042969 113.80527344 224.68359375 114.87109375 C224.72025146 115.82943115 224.75690918 116.78776855 224.79467773 117.77514648 C224.75834424 119.97138925 224.75834424 119.97138925 226 121 C227.70563778 121.15740605 229.41727244 121.25093392 231.12890625 121.31640625 C232.16337891 121.35830078 233.19785156 121.40019531 234.26367188 121.44335938 C235.35228516 121.48267578 236.44089844 121.52199219 237.5625 121.5625 C238.65498047 121.60568359 239.74746094 121.64886719 240.87304688 121.69335938 C243.58189564 121.79982068 246.29083992 121.90183516 249 122 C249.98944652 189.52591975 243.24112426 254.30129829 221.9375 318.625 C221.6879657 319.38041077 221.4384314 320.13582153 221.18133545 320.91412354 C217.80287605 331.10227713 214.06749799 341.06690993 210 351 C209.34282628 352.69234992 208.68647402 354.38501926 208.03125 356.078125 C205.48338344 362.43730635 202.48834636 368.58886018 199.5 374.75 C199.19320313 375.38350372 198.88640625 376.01700745 198.5703125 376.66970825 C186.41298289 401.71868964 172.60426207 425.61315911 156 448 C155.03513565 449.31639115 154.07029286 450.63279811 153.10546875 451.94921875 C147.19513884 459.96485914 141.04391474 467.6749688 134.51660156 475.19628906 C133.39877016 476.52573825 132.31120857 477.88078104 131.24121094 479.24902344 C124.6830303 487.56313429 117.32779456 494.97644499 109.82617188 502.43457031 C107.6291716 504.62084876 105.44307322 506.81761938 103.2578125 509.015625 C96.50690275 515.77260541 89.77214018 522.33460447 82.24291992 528.22851562 C79.96826773 530.02506252 77.82558449 531.91889681 75.6875 533.875 C58.23737604 549.48180101 38.52652393 562.42205138 18.51757812 574.47167969 C16.03228484 575.98040117 13.56975325 577.52136992 11.109375 579.0703125 C9.59422874 580.005984 8.07862777 580.94091974 6.5625 581.875 C5.88292236 582.31038086 5.20334473 582.74576172 4.50317383 583.19433594 C1.54408151 584.98627839 -0.39272383 586.04612613 -3.89282227 585.78027344 C-7.13143103 584.96699508 -9.42769164 583.86760667 -12.28125 582.1484375 C-13.27713135 581.55200439 -14.2730127 580.95557129 -15.29907227 580.34106445 C-16.35537842 579.69226318 -17.41168457 579.04346191 -18.5 578.375 C-19.60206787 577.7049292 -20.70413574 577.0348584 -21.83959961 576.34448242 C-42.52039636 563.65261239 -62.46749253 549.68135248 -81 534 C-81.58136719 533.50886719 -82.16273438 533.01773438 -82.76171875 532.51171875 C-90.0658394 526.32204125 -97.13238831 520.04321807 -103.81640625 513.18359375 C-105.76589894 511.23410106 -107.76193807 509.45486672 -109.875 507.6875 C-115.20982221 503.11633178 -119.81434256 497.83909968 -124.51708984 492.63574219 C-125.89453326 491.11633637 -127.28465299 489.60844888 -128.67578125 488.1015625 C-133.8910641 482.44018236 -138.90276991 476.6614619 -143.69384766 470.63623047 C-144.61270294 469.48517101 -145.53740047 468.33876299 -146.46630859 467.19580078 C-176.84619741 429.77839049 -200.64468014 386.87422147 -218 342 C-218.46164551 340.81293457 -218.92329102 339.62586914 -219.39892578 338.40283203 C-224.41582191 325.42322581 -229.09040299 312.46609764 -232.49853516 298.96728516 C-233.31113378 295.77939826 -234.19522168 292.6108747 -235.0625 289.4375 C-238.80465662 275.25369665 -241.92105288 260.98961187 -244.5625 246.5625 C-244.71407562 245.73651306 -244.86565125 244.91052612 -245.02182007 244.05950928 C-251.85947019 206.56481051 -253.33702596 169.12552483 -253.1373291 131.10845947 C-253.11637489 126.67519138 -253.10763272 122.24189773 -253.09765625 117.80859375 C-253.07660034 109.20566296 -253.04275636 100.60285029 -253 92 C-252.07604431 91.69242264 -252.07604431 91.69242264 -251.13342285 91.37863159 C-250.32433472 91.10914703 -249.51524658 90.83966248 -248.68164062 90.56201172 C-247.47924744 90.16162186 -247.47924744 90.16162186 -246.25256348 89.75314331 C-244.53089459 89.1775043 -242.81174284 88.59433156 -241.09375 88.0078125 C-236.30302912 86.37723581 -231.50033235 84.83652056 -226.63487244 83.44287109 C-214.46582004 79.95052717 -202.46086567 75.95892419 -190.4375 72 C-186.18668925 70.60266688 -181.93536251 69.20691532 -177.68359375 67.8125 C-176.15526917 67.31108742 -176.15526917 67.31108742 -174.59606934 66.79954529 C-167.54398668 64.49128233 -160.47341826 62.2521097 -153.38598633 60.05517578 C-148.6146037 58.5682686 -143.86649232 57.01675881 -139.125 55.4375 C-138.279375 55.15970703 -137.43375 54.88191406 -136.5625 54.59570312 C-131.44828593 52.89487505 -126.44005732 51.01911328 -121.44775391 48.98901367 C-117.53154247 47.40667051 -113.57635771 45.92932711 -109.625 44.4375 C-75.43388952 31.43454987 -41.22522543 17.9797438 -8.83422852 0.85498047 C-5.8015421 -0.55863165 -3.21468333 -0.63320637 0 0 Z M-7.83984375 35.984375 C-9.04193481 36.63599609 -9.04193481 36.63599609 -10.26831055 37.30078125 C-11.58955933 38.01814453 -11.58955933 38.01814453 -12.9375 38.75 C-24.58372036 44.95537678 -36.54000795 50.31980832 -48.65039062 55.54882812 C-51.75919622 56.8956751 -54.8568833 58.26520701 -57.953125 59.640625 C-78.12751598 68.49524538 -98.91280737 75.75757498 -119.65197754 83.15994263 C-121.82525135 83.93747978 -123.99654366 84.72023217 -126.16699219 85.50561523 C-131.99313121 87.60743551 -137.79003206 89.62731256 -143.75 91.3125 C-151.19598041 93.4489887 -158.59989851 95.70991037 -166 98 C-174.09946081 100.50330023 -182.20518838 102.97456755 -190.34570312 105.34106445 C-194.58027296 106.57367962 -198.79249364 107.86569421 -203 109.1875 C-206.73022454 110.34968051 -210.42929114 111.37049307 -214.25 112.1875 C-217.77816115 112.59771462 -217.77816115 112.59771462 -219 114 C-219.10352743 115.42732695 -219.13850922 116.85971085 -219.14526367 118.29077148 C-219.15154785 119.20875015 -219.15783203 120.12672882 -219.16430664 121.07252502 C-219.16551514 122.0785527 -219.16672363 123.08458038 -219.16796875 124.12109375 C-219.1721582 125.15938828 -219.17634766 126.1976828 -219.18066406 127.2674408 C-219.1905082 130.65749833 -219.19044396 134.04743044 -219.1875 137.4375 C-219.18722809 138.58623596 -219.18695618 139.73497192 -219.18667603 140.91851807 C-219.16973817 156.3720715 -218.99110077 171.68698337 -217.31640625 187.06396484 C-216.97139672 190.26541903 -216.67201918 193.46953252 -216.375 196.67578125 C-213.86754607 222.82991878 -209.71565739 248.58842403 -203 274 C-202.77812012 274.84369141 -202.55624023 275.68738281 -202.32763672 276.55664062 C-200.95628363 281.72598676 -199.50083477 286.86694532 -198 292 C-197.47019531 293.85431641 -197.47019531 293.85431641 -196.9296875 295.74609375 C-182.27354559 344.99278038 -157.46688834 391.4854628 -125.26416016 431.43164062 C-124.06994134 432.91322843 -122.88430494 434.40172215 -121.69921875 435.890625 C-116.90841672 441.84721723 -111.87138943 447.51590092 -106.66796875 453.109375 C-104.33310178 455.6390991 -102.07054953 458.21466778 -99.8125 460.8125 C-75.69827909 487.63957077 -45.47634236 508.92829473 -14.375 526.8125 C-13.46766113 527.33473145 -12.56032227 527.85696289 -11.62548828 528.39501953 C-10.78743652 528.8692334 -9.94938477 529.34344727 -9.0859375 529.83203125 C-7.9729126 530.46202026 -7.9729126 530.46202026 -6.83740234 531.10473633 C-5.04099505 532.14600548 -5.04099505 532.14600548 -3 532 C-3 527.05 -3 522.1 -3 517 C-2.34 518.32 -1.68 519.64 -1 521 C4.80027608 517.54310707 10.59000009 514.06912484 16.37158203 510.58105469 C18.62660927 509.22460323 20.88829042 507.88035022 23.15234375 506.5390625 C53.88867959 488.09411943 83.86013048 462.27949721 106 434 C107.54730702 432.04203574 109.09811928 430.08694994 110.65209961 428.13427734 C111.68915346 426.8302356 112.72273454 425.52342167 113.75219727 424.21337891 C116.64198553 420.56747071 119.59482229 417.17575085 123 414 C123.33 414 123.66 414 124 414 C124.33 414.66 124.66 415.32 125 416 C136.77328828 400.10334808 147.55486798 383.3845831 157 366 C157.40250977 365.27119629 157.80501953 364.54239258 158.21972656 363.79150391 C169.21673973 343.81210433 178.05550303 322.92969577 185.23242188 301.29101562 C185.98147793 299.05528343 186.7595316 296.83187598 187.546875 294.609375 C194.36602961 275.15382923 198.67298614 255.00266306 202.47705078 234.77001953 C202.92752408 232.38389904 203.39681354 230.0025502 203.87109375 227.62109375 C206.1302807 215.75290739 207.01691017 203.72884867 207.99853516 191.70141602 C208.0581543 190.97622269 208.11777344 190.25102936 208.17919922 189.50386047 C208.34196087 187.50834439 208.5004599 185.51248196 208.65869141 183.51660156 C209 180 209 180 209.53442383 176.86181641 C209.98047548 174.12001388 210.11477707 171.59388499 210.09765625 168.8203125 C210.09282227 167.428125 210.09282227 167.428125 210.08789062 166.0078125 C210.07951172 165.05648437 210.07113281 164.10515625 210.0625 163.125 C210.05573242 161.66320312 210.05573242 161.66320312 210.04882812 160.171875 C210.03710906 157.78118566 210.02070219 155.3906256 210 153 C210.928125 153.061875 211.85625 153.12375 212.8125 153.1875 C215.91001234 153.2897211 215.91001234 153.2897211 217.67431641 151.80078125 C219.42231723 149.42633298 219.38725052 147.93205477 219.3984375 145 C219.40230469 144.030625 219.40617187 143.06125 219.41015625 142.0625 C219.39855469 141.051875 219.38695312 140.04125 219.375 139 C219.39240234 137.4840625 219.39240234 137.4840625 219.41015625 135.9375 C219.40628906 134.968125 219.40242188 133.99875 219.3984375 133 C219.39505371 132.113125 219.39166992 131.22625 219.38818359 130.3125 C218.9262623 127.56072737 218.21846009 126.64641286 216 125 C215.34 125 214.68 125 214 125 C214 121.37 214 117.74 214 114 C210.6467551 113.18353156 207.29249667 112.37171182 203.9375 111.5625 C202.99455078 111.33240234 202.05160156 111.10230469 201.08007812 110.86523438 C196.06206632 109.65881342 191.12484499 108.61839322 186 108 C186.061875 106.6078125 186.061875 106.6078125 186.125 105.1875 C186.27136339 101.84190281 186.27136339 101.84190281 184 99 C181.65769498 98.68187819 181.65769498 98.68187819 178.93359375 98.91796875 C177.89879883 98.95889648 176.86400391 98.99982422 175.79785156 99.04199219 C174.68893555 99.09000977 173.58001953 99.13802734 172.4375 99.1875 C161.78496567 99.43339777 153.93580156 98.11800008 144.21142578 93.875 C140.3706668 92.35531793 136.40196224 91.24384524 132.44921875 90.05371094 C91.84219817 77.64856507 52.75659709 60.69716422 14.4375 42.5625 C13.58752441 42.1617627 12.73754883 41.76102539 11.86181641 41.34814453 C8.17012961 39.58952679 4.56234688 37.78607989 1.03515625 35.71484375 C-3.03326651 33.41621107 -3.96588107 33.84892971 -7.83984375 35.984375 Z " fill="#022666" transform="translate(515,213)"/>
<path d="M0 0 C0.75675721 -0.00523668 1.51351441 -0.01047336 2.29320365 -0.01586872 C4.82482072 -0.03085059 7.35623535 -0.03157348 9.88789368 -0.03224182 C11.70489848 -0.03986465 13.52190006 -0.04829236 15.33889771 -0.0574646 C20.27300623 -0.07940725 25.20705279 -0.08820847 30.1412046 -0.09329104 C33.22600841 -0.0969356 36.31079601 -0.10317626 39.39559364 -0.11029243 C50.16386757 -0.13478839 60.93209332 -0.14783866 71.70039368 -0.15138245 C81.7268576 -0.1550154 91.75301499 -0.18489329 101.77938527 -0.22678703 C110.39529296 -0.26152104 119.01109924 -0.27693145 127.62707645 -0.27762848 C132.76945368 -0.27842038 137.91151878 -0.2871189 143.05382347 -0.31562614 C147.89421293 -0.34185923 152.7340327 -0.34398273 157.57446098 -0.3279705 C159.34570308 -0.32616005 161.11697832 -0.33281018 162.88814926 -0.34878922 C173.32897225 -0.43719976 182.1522117 -0.17617529 190.40374279 7.01668644 C197.7251117 14.60722789 200.01434992 23.3517598 199.9223175 33.65818787 C199.92932678 34.64338409 199.93633606 35.62858032 199.94355774 36.64363098 C199.96103107 39.87102722 199.94954988 43.09753214 199.93598938 46.32493591 C199.93868799 48.5887875 199.94257348 50.85263795 199.94758606 53.1164856 C199.95346727 57.85136497 199.94496476 62.5859415 199.92622375 67.32078552 C199.90347475 73.35942716 199.91654098 79.39735594 199.94051361 85.43597126 C199.95504225 90.10916406 199.95033262 94.78219093 199.94000244 99.45538902 C199.93735261 101.68030572 199.94054281 103.90523797 199.94992065 106.13013649 C199.98841263 117.83099826 200.00843154 128.3333461 195.40473938 139.27415466 C195.04803162 140.17011856 194.69132385 141.06608246 194.32380676 141.98919678 C188.20837627 156.61449484 175.73855046 164.15386418 162.40473938 171.27415466 C160.4988824 172.31806964 158.59398382 173.36373567 156.68989563 174.41087341 C149.95981458 178.09195275 143.1901008 181.69634458 136.40473938 185.27415466 C135.72602783 185.63219177 135.04731628 185.99022888 134.34803772 186.3591156 C129.98898349 188.65615613 125.62366965 190.94079617 121.25166321 193.21308899 C119.83451666 193.95044179 118.41846112 194.68989601 117.00361633 195.43165588 C90.23109946 209.4496209 90.23109946 209.4496209 78.40473938 207.27415466 C72.79428011 205.48173953 67.64348559 202.92836366 62.40473938 200.27415466 C60.77447815 199.45310242 60.77447815 199.45310242 59.11128235 198.61546326 C46.29739111 192.14359017 33.54357647 185.5465481 21.10005188 178.38352966 C18.36665474 176.81007222 15.60851303 175.29034475 12.83442688 173.78977966 C-5.7650109 163.70830645 -20.30672616 153.70440644 -27.152771 132.72753906 C-28.74665849 127.32458373 -29.02666835 122.3398685 -28.99931335 116.73484802 C-29.00960823 115.23278557 -29.00960823 115.23278557 -29.02011108 113.70037842 C-29.03827174 110.42143701 -29.03455775 107.14297885 -29.02885437 103.86399841 C-29.03342045 101.56814419 -29.03872729 99.27229133 -29.04473877 96.97644043 C-29.05364815 92.17775397 -29.05127043 87.37923415 -29.04130554 82.58055115 C-29.02980323 76.44513878 -29.05005836 70.31030089 -29.07922268 64.17496395 C-29.09760424 59.43847023 -29.09728853 54.70211379 -29.09158516 49.96559334 C-29.09143227 47.70387019 -29.09744976 45.44213755 -29.10987663 43.18044853 C-29.12482603 40.01462493 -29.11408078 36.84985828 -29.0969696 33.68406677 C-29.10663757 32.7596579 -29.11630554 31.83524902 -29.12626648 30.88282776 C-29.0293297 22.27759153 -25.97778502 15.00231016 -20.59526062 8.27415466 C-14.10300963 2.57464169 -8.73085737 -0.03002253 0 0 Z " fill="#FDFDFD" transform="translate(426.5952606201172,434.72584533691406)"/>
<path d="M0 0 C0.33 0 0.66 0 1 0 C1 26.4 1 52.8 1 80 C2.32 80.66 3.64 81.32 5 82 C6.39453125 83.55859375 6.39453125 83.55859375 7.8125 85.4375 C29.82353664 111.28060672 73.46194649 127.73043315 106.39794922 130.73120117 C144.95199898 133.36863849 185.16515226 114.23857899 215 91 C217.48247851 88.77972536 219.76012592 86.46018957 222 84 C223.3305319 82.6638711 224.66359645 81.33025603 226 80 C228.6550144 113.11142633 228.6550144 113.11142633 217.125 128.5 C215.7793619 130.02639546 214.40604496 131.52906065 213 133 C212.4534375 133.598125 211.906875 134.19625 211.34375 134.8125 C205.16227055 140.88158891 197.10158667 144.59439304 189.53466797 148.63769531 C187.04446722 149.97610026 184.56939834 151.33878423 182.09765625 152.7109375 C171.5220956 158.56829616 160.84576448 164.232406 150.11746216 169.8041687 C148.68617434 170.54827487 147.25601923 171.29456467 145.82711792 172.04324341 C118.82301353 186.17485064 118.82301353 186.17485064 107 184 C101.38954073 182.20758487 96.23874621 179.654209 91 177 C89.36973877 176.17894775 89.36973877 176.17894775 87.70654297 175.34130859 C74.89265173 168.86943551 62.13883709 162.27239344 49.6953125 155.109375 C46.96191536 153.53591755 44.20377365 152.01619009 41.4296875 150.515625 C22.82548012 140.43156651 8.30817657 130.43109768 1.43852234 109.46231079 C-0.17172459 104.0032897 -0.40577514 98.97904098 -0.34057617 93.31787109 C-0.34101425 92.30203949 -0.34145233 91.28620789 -0.34190369 90.23959351 C-0.33983136 86.91733868 -0.31657399 83.595603 -0.29296875 80.2734375 C-0.28736726 77.95602697 -0.28309978 75.63861287 -0.28010559 73.32119751 C-0.26870039 67.24833209 -0.23927053 61.17568498 -0.20599365 55.10290527 C-0.17519931 48.89545646 -0.16158029 42.68797207 -0.14648438 36.48046875 C-0.11439661 24.32021706 -0.06325282 12.16012675 0 0 Z " fill="#F0EFF5" transform="translate(398,458)"/>
<path d="M0 0 C5.03965712 1.1450451 9.32898822 3.71436739 13.8125 6.1875 C49.6795588 25.4069781 88.15486665 39.54931262 126.54248047 52.79467773 C129.7227442 53.90334615 132.88875346 55.04364349 136.05078125 56.203125 C139.84033733 57.59050816 143.63771773 58.88856947 147.5 60.0625 C148.4796875 60.36285156 149.459375 60.66320312 150.46875 60.97265625 C151.6340625 61.31167969 152.799375 61.65070313 154 62 C154.80091064 62.2580542 155.60182129 62.5161084 156.42700195 62.78198242 C163.47684444 64.92841277 169.84767931 65.37111322 177.1875 65.1875 C178.23486328 65.17396484 179.28222656 65.16042969 180.36132812 65.14648438 C182.90812124 65.1115968 185.45376325 65.0625887 188 65 C190.00496724 69.00993448 189.22877884 74.09130412 189.25 78.5 C189.2809375 80.10681641 189.2809375 80.10681641 189.3125 81.74609375 C189.31765625 82.76832031 189.3228125 83.79054688 189.328125 84.84375 C189.3374707 85.78412109 189.34681641 86.72449219 189.35644531 87.69335938 C189.18000488 88.83514648 189.18000488 88.83514648 189 90 C185.8353486 92.1097676 185.02606227 92.25552605 181.40234375 92.265625 C180.07686523 92.26949219 180.07686523 92.26949219 178.72460938 92.2734375 C177.80486328 92.26570313 176.88511719 92.25796875 175.9375 92.25 C175.01388672 92.25773437 174.09027344 92.26546875 173.13867188 92.2734375 C172.25630859 92.27085937 171.37394531 92.26828125 170.46484375 92.265625 C169.656521 92.26336914 168.84819824 92.26111328 168.01538086 92.25878906 C166 92 166 92 164 90 C163.6936141 87.26565038 163.4886664 84.61720179 163.375 81.875 C163.33632813 81.12089844 163.29765625 80.36679687 163.2578125 79.58984375 C163.16348969 77.72696816 163.08065338 75.86351745 163 74 C162.45174561 73.86948242 161.90349121 73.73896484 161.33862305 73.60449219 C142.9015243 69.18624294 142.9015243 69.18624294 134.8359375 66.03125 C131.0866088 64.66785775 127.27259004 63.59402385 123.4375 62.5 C118.04908094 60.95017133 112.82954193 59.28072314 107.65625 57.1015625 C104.11318367 55.63223205 100.52887522 54.28364821 96.9375 52.9375 C96.23979492 52.67533691 95.54208984 52.41317383 94.82324219 52.14306641 C91.29979142 50.82783431 87.77393582 49.57277465 84.1875 48.4375 C79.94942536 47.06753636 75.99344354 45.20492535 71.9609375 43.32421875 C67.81874773 41.47170908 63.58838876 39.88823181 59.3359375 38.30859375 C55.16077243 36.6707948 51.08568795 34.84788543 47 33 C46.12698242 32.60707764 45.25396484 32.21415527 44.35449219 31.80932617 C41.46253936 30.50429056 38.57435876 29.19126482 35.6875 27.875 C34.64875732 27.40215576 33.61001465 26.92931152 32.53979492 26.44213867 C24.69118396 22.84229188 16.96176701 19.04302595 9.33276367 14.99755859 C3.9645002 12.10869474 3.9645002 12.10869474 -2 12 C-3.9479553 12.77982923 -3.9479553 12.77982923 -5.8125 14 C-22.56612826 23.80969023 -40.63009647 31.59847629 -58.68359375 38.66796875 C-61.71110184 39.88396434 -64.66695459 41.18775372 -67.625 42.5625 C-72.61921906 44.87779918 -77.7061276 46.86223141 -82.85546875 48.8046875 C-85.71411873 49.8913296 -88.54527681 51.02812935 -91.375 52.1875 C-95.19540346 53.72798527 -99.02866669 54.89685186 -103 56 C-106.4303802 57.25780607 -109.84288769 58.55202075 -113.25 59.87109375 C-119.46649514 62.2119927 -125.76859574 64.20510408 -132.125 66.125 C-132.95999023 66.37870361 -133.79498047 66.63240723 -134.65527344 66.89379883 C-139.4032102 68.31003893 -144.1315591 69.52309996 -148.99389648 70.48046875 C-151.14889297 71.0385596 -152.95842746 71.86403162 -154.9375 72.875 C-160.88088811 75.69416462 -167.2936195 76.74878896 -173.6953125 78.0703125 C-178.8412548 79.14612124 -183.78493494 80.52633057 -188.6875 82.4375 C-192.15932721 83.77974723 -195.65455492 84.71300969 -199.26953125 85.59765625 C-200.34436768 85.86199463 -201.4192041 86.12633301 -202.52661133 86.39868164 C-203.34282959 86.5971167 -204.15904785 86.79555176 -205 87 C-206.07694075 176.18726273 -192.03345858 260.76738046 -119.37817383 383.21484375 C-117.87081287 385.16733682 -116.39305081 387.14021127 -114.91796875 389.1171875 C-108.24948026 398.02783444 -100.97948345 406.34015336 -93.40283203 414.47949219 C-92.01254219 415.98640572 -90.64236717 417.50925246 -89.27734375 419.0390625 C-82.90889044 426.15323634 -76.15854196 432.68636453 -69 439 C-68.47067871 439.47405273 -67.94135742 439.94810547 -67.39599609 440.43652344 C-54.6026598 451.88057747 -40.66372919 461.61764703 -26.4375 471.1875 C-25.56512695 471.77611816 -24.69275391 472.36473633 -23.79394531 472.97119141 C-19.58301678 475.77141967 -15.36830698 478.39991992 -10.890625 480.75390625 C0.55535828 486.79548548 0.55535828 486.79548548 2.046875 490.8359375 C2.06155276 493.45591792 1.80847148 495.51646017 1 498 C-5.06751906 496.38468711 -10.10202398 493.20247391 -15.4375 490 C-16.4167041 489.41549072 -17.3959082 488.83098145 -18.40478516 488.22875977 C-40.80221755 474.76860523 -63.89189664 459.29463093 -81.84765625 440.16015625 C-83.75143986 438.24946235 -85.70367103 436.5154304 -87.75 434.76171875 C-92.08566736 430.99952849 -96.02693499 426.94751773 -99.9375 422.75 C-100.63842773 422.00057129 -101.33935547 421.25114258 -102.06152344 420.47900391 C-107.29671384 414.84213339 -112.23863868 409.04293985 -117 403 C-117.92658766 401.86311575 -118.85509894 400.72779757 -119.78515625 399.59375 C-147.97851888 365.06872963 -168.5763968 326.28161709 -185 285 C-185.53367187 283.68418945 -185.53367187 283.68418945 -186.078125 282.34179688 C-191.70419968 268.4264851 -195.43644043 253.99055697 -199.1171875 239.46582031 C-199.85946323 236.55173119 -200.62601934 233.64625192 -201.40625 230.7421875 C-212.16559042 189.6129276 -215.22337854 146.20730521 -215.0625 103.875 C-215.05747061 101.54817806 -215.05291027 99.22135505 -215.04882812 96.89453125 C-215.03794655 91.26299715 -215.02132449 85.63150375 -215 80 C-210.93757593 78.3205694 -206.89734635 77.18467466 -202.625 76.1875 C-196.03106767 74.59218167 -189.65504905 72.6191492 -183.234375 70.41796875 C-170.32356284 66.03594625 -157.18848947 62.21978842 -144.0222168 58.68554688 C-135.69311966 56.43242061 -127.58911267 53.53054051 -119.48046875 50.59375 C-118.14844925 50.11232292 -118.14844925 50.11232292 -116.78952026 49.62117004 C-56.30248712 29.27519397 -56.30248712 29.27519397 0 0 Z " fill="#57CBFA" transform="translate(511,247)"/>
<path d="M0 0 C11.9659517 11.17333524 21.20055035 26.73744517 24.75 42.75 C24.95238281 43.6059375 25.15476562 44.461875 25.36328125 45.34375 C26.86224524 52.44088563 27.22608381 59.50909741 26.75 66.75 C23.99448489 69.50551511 15.53025429 67.93568203 11.8125 67.9375 C10.49830078 67.94974609 9.18410156 67.96199219 7.83007812 67.97460938 C6.57775391 67.97654297 5.32542969 67.97847656 4.03515625 67.98046875 C2.30084351 67.98663208 2.30084351 67.98663208 0.53149414 67.99291992 C-2.25 67.75 -2.25 67.75 -4.25 65.75 C-4.59475147 63.28075446 -4.85105459 60.85548323 -5.0625 58.375 C-6.25459857 47.16700998 -10.28800158 37.64866944 -17.25 28.75 C-17.77722656 28.07324219 -18.30445313 27.39648438 -18.84765625 26.69921875 C-26.57213945 17.95612238 -40.2298574 11.34538176 -51.828125 10.484375 C-68.54874375 10.55552657 -81.72028491 13.62983908 -94.25390625 25.51953125 C-97.87852829 29.56974491 -100.61423954 34.01386792 -103.25 38.75 C-103.86875 39.77480469 -103.86875 39.77480469 -104.5 40.8203125 C-107.65815595 46.74185491 -108.04831094 53.0432278 -108.56762695 59.63110352 C-109.05711514 65.55711514 -109.05711514 65.55711514 -111.25 67.75 C-114.12329102 67.99291992 -114.12329102 67.99291992 -117.75390625 67.98046875 C-119.05134766 67.97853516 -120.34878906 67.97660156 -121.68554688 67.97460938 C-122.36222412 67.96840576 -123.03890137 67.96220215 -123.73608398 67.95581055 C-125.80790471 67.93754052 -127.87927897 67.93530095 -129.95117188 67.93554688 C-140.10991743 67.89008257 -140.10991743 67.89008257 -141.25 66.75 C-142.84783027 44.69470343 -135.48864263 24.60753583 -121.25 7.75 C-114.64727407 0.35212872 -107.85767048 -5.3559245 -99.25 -10.25 C-98.38890625 -10.78367187 -97.5278125 -11.31734375 -96.640625 -11.8671875 C-65.69326833 -30.27079309 -26.66506225 -21.45953217 0 0 Z " fill="#FAFCFD" transform="translate(569.25,350.25)"/>
<path d="M0 0 C3 1 3 1 4.7890625 4.01953125 C5.4113817 5.27879681 6.02297748 6.54340591 6.625 7.8125 C6.93695312 8.44220703 7.24890625 9.07191406 7.5703125 9.72070312 C9.85290154 14.40886554 11.11767336 18.17933758 11.14717102 23.37301636 C11.15790398 24.67614525 11.15790398 24.67614525 11.16885376 26.00559998 C11.17154266 26.95105179 11.17423157 27.8965036 11.17700195 28.87060547 C11.18357315 29.87282639 11.19014435 30.8750473 11.19691467 31.90763855 C11.21663615 35.22748901 11.22831157 38.54729411 11.23828125 41.8671875 C11.24235678 43.00446415 11.2464323 44.1417408 11.25063133 45.31348038 C11.27149329 51.34016996 11.28579103 57.36683681 11.29516602 63.39355469 C11.30619362 69.59136966 11.34055121 75.78882196 11.38033772 81.98650932 C11.40660922 86.77379988 11.41486749 91.56100569 11.41844749 96.34836197 C11.42329107 98.63108884 11.43484064 100.91381249 11.45348549 103.19646835 C11.6232873 125.37449397 8.23693022 144.49084434 -8 161 C-16.23638904 167.4380262 -25.17871903 172.49801238 -34.4375 177.3125 C-36.28155337 178.28312441 -38.12409368 179.25658327 -39.96664429 180.23005676 C-41.20051496 180.88159456 -42.43490726 181.5321455 -43.66983032 182.1816864 C-49.40127213 185.19858628 -55.07680178 188.31296217 -60.75 191.4375 C-69.39903031 196.17736848 -78.12375532 200.7016231 -87 205 C-88.11503906 205.55429687 -89.23007812 206.10859375 -90.37890625 206.6796875 C-93.55406733 208.215686 -96.7462182 209.63896688 -100 211 C-101.11890625 211.47308594 -102.2378125 211.94617188 -103.390625 212.43359375 C-113.12259193 215.93579261 -119.95406512 214.1791432 -129 210 C-129.61536621 209.72075684 -130.23073242 209.44151367 -130.86474609 209.15380859 C-140.48365835 204.71566614 -149.71275943 199.46535305 -158.98852539 194.36206055 C-164.11200256 191.5486369 -169.25329724 188.82619001 -174.5 186.25 C-185.84220355 180.66010732 -196.66310527 174.29747492 -207 167 C-207.89847656 166.37480469 -208.79695313 165.74960937 -209.72265625 165.10546875 C-219.95453217 157.52801615 -226.28577659 146.40890584 -229 134 C-229.06926968 131.24029592 -229.0941736 128.50803958 -229.0625 125.75 C-229.05798828 125.00492188 -229.05347656 124.25984375 -229.04882812 123.4921875 C-229.03709246 121.6614236 -229.0191585 119.83070127 -229 118 C-226.57611213 120.42388787 -226.17734203 122.23141525 -225.1875 125.5 C-216.72400904 151.38469134 -196.25092651 160.44687737 -173.60546875 172.4765625 C-168.50852963 175.18456589 -163.44821119 177.95149682 -158.40014648 180.74926758 C-133.48166439 196.27479144 -133.48166439 196.27479144 -105.6484375 198.046875 C-88.32241044 191.36233241 -71.90632486 182.08468804 -55.68359375 173.12109375 C-51.67469396 170.90800092 -47.64445587 168.74065241 -43.59765625 166.59765625 C-41.99349854 165.74373291 -41.99349854 165.74373291 -40.35693359 164.87255859 C-38.3099648 163.78426876 -36.25971799 162.70211216 -34.20556641 161.62744141 C-19.52422285 153.78749831 -8.52418805 143.81838404 -3.22464561 127.63180828 C-1.31365221 121.09987384 -0.56657562 115.21000137 -0.61181641 108.4230957 C-0.60655945 107.42972198 -0.60130249 106.43634827 -0.59588623 105.41287231 C-0.58280598 102.16700989 -0.59137965 98.92164765 -0.6015625 95.67578125 C-0.59953881 93.4013815 -0.59662491 91.12698238 -0.59286499 88.85258484 C-0.58845827 84.10275043 -0.59482122 79.35308604 -0.60888672 74.60327148 C-0.62600677 68.52728202 -0.61610883 62.45168935 -0.59816933 56.3757143 C-0.58731186 51.68559292 -0.59078638 46.99556515 -0.5985527 42.3054409 C-0.60054775 40.06522766 -0.59811997 37.8250058 -0.59111404 35.58480263 C-0.58346409 32.45254713 -0.5951525 29.32092894 -0.61181641 26.1887207 C-0.60270737 24.81309715 -0.60270737 24.81309715 -0.59341431 23.40968323 C-0.65065946 17.57817393 -1.76831974 13.38030222 -4 8 C-3.85886682 4.82450352 -3.50228264 3.58264786 -1.4375 1.1875 C-0.963125 0.795625 -0.48875 0.40375 0 0 Z " fill="#033193" transform="translate(626,442)"/>
<path d="M0 0 C5.60555477 3.95349178 10.89392813 9.7334124 12.29296875 16.6171875 C13.23769404 25.4063172 12.92296788 32.53524123 7.29296875 39.6171875 C6.61274658 40.09776611 5.93252441 40.57834473 5.23168945 41.07348633 C2.15480389 45.11051827 2.7485695 49.24471869 2.7890625 54.18359375 C2.77964127 55.21403305 2.77022003 56.24447235 2.76051331 57.30613708 C2.73182725 60.59752292 2.72878708 63.8881866 2.73046875 67.1796875 C2.72686717 70.47465336 2.71740799 73.76909406 2.68971252 77.06394958 C2.67285763 79.11389993 2.67010006 81.16402375 2.682724 83.21400452 C2.67584061 84.1418425 2.66895721 85.06968048 2.66186523 86.02563477 C2.662827 86.84185806 2.66378876 87.65808136 2.66477966 88.4990387 C2.20133647 91.13920231 1.41371296 92.02022887 -0.70703125 93.6171875 C-5.01022777 94.26603865 -9.36047676 94.08033777 -13.70703125 94.0546875 C-14.9084375 94.07466797 -16.10984375 94.09464844 -17.34765625 94.11523438 C-18.4975 94.11458984 -19.64734375 94.11394531 -20.83203125 94.11328125 C-21.88648438 94.11513428 -22.9409375 94.1169873 -24.02734375 94.11889648 C-26.70703125 93.6171875 -26.70703125 93.6171875 -28.35343933 91.8711853 C-29.88450003 89.32166695 -30.07035177 87.99606449 -30.04418945 85.05151367 C-30.04461746 84.15345505 -30.04504547 83.25539642 -30.04548645 82.3301239 C-30.03305405 81.36653458 -30.02062164 80.40294525 -30.0078125 79.41015625 C-30.01545573 77.35872074 -30.02394582 75.30728824 -30.03320312 73.25585938 C-30.03099444 70.02995341 -30.01953093 66.80464994 -29.99194336 63.57885742 C-29.97117474 60.45950634 -29.98728543 57.34197145 -30.0078125 54.22265625 C-29.9893074 53.26513962 -29.97080231 52.30762299 -29.95173645 51.3210907 C-30.00511098 46.42066673 -30.3525081 43.45144249 -33.63354492 39.68481445 C-34.16235764 39.1736055 -34.69117035 38.66239655 -35.23600769 38.13569641 C-39.31343953 33.92664311 -39.93299164 28.3744227 -40.20703125 22.7421875 C-39.95631628 14.45814712 -36.8982454 8.33999393 -30.89453125 2.6796875 C-21.56839768 -4.69770174 -10.50651508 -5.91304665 0 0 Z " fill="#023CB0" transform="translate(525.70703125,481.3828125)"/>
<path d="M0 0 C1.65 0 3.3 0 5 0 C5.02908357 3.41664873 5.04682691 6.8332655 5.0625 10.25 C5.07087891 11.21808594 5.07925781 12.18617188 5.08789062 13.18359375 C5.09111328 14.11816406 5.09433594 15.05273438 5.09765625 16.015625 C5.10289307 16.87446289 5.10812988 17.73330078 5.11352539 18.61816406 C5.0042982 20.90982101 4.55966447 22.78485742 4 25 C3.80959763 27.03084184 3.65930794 29.06559639 3.53515625 31.1015625 C3.4585376 32.30530518 3.38191895 33.50904785 3.30297852 34.74926758 C3.22362061 36.02825928 3.1442627 37.30725098 3.0625 38.625 C1.43364522 63.29463567 -1.78029651 86.85053532 -8.78515625 110.640625 C-9.77257838 114.09035295 -10.64298243 117.5615966 -11.49609375 121.046875 C-15.06900085 135.5423376 -19.45586639 149.33735727 -24.95068359 163.21435547 C-26.44699221 167.18664056 -27.72236381 171.22335409 -28.98364258 175.27563477 C-30.03872262 178.10379672 -31.40071534 180.44727003 -33 183 C-34.42804415 186.1806438 -35.75732702 189.3751868 -37.01953125 192.625 C-39.6786047 199.31270313 -42.84830245 205.48765867 -46.4921875 211.68359375 C-48.51142546 215.12505561 -50.45362583 218.60494226 -52.3828125 222.09765625 C-52.98810791 223.19118408 -53.59340332 224.28471191 -54.21704102 225.41137695 C-55.41920924 227.58622158 -56.61779841 229.76304964 -57.81225586 231.94213867 C-61.50796224 238.60195135 -65.53570171 244.83380613 -70 251 C-70.97694723 252.39895915 -71.95104746 253.79991209 -72.921875 255.203125 C-82.17948029 268.48037379 -92.03615018 281.13945118 -102.61303711 293.3918457 C-103.57544888 294.5077419 -104.53157189 295.62908072 -105.48266602 296.75463867 C-110.35813794 302.4520572 -115.60548982 307.75810984 -120.9152832 313.0456543 C-122.43491668 314.5599258 -123.94912517 316.0794743 -125.46289062 317.59960938 C-130.80050874 322.94158922 -136.20479311 328.15066123 -142 333 C-142.57661377 333.48331787 -143.15322754 333.96663574 -143.74731445 334.46459961 C-153.45835318 342.50536729 -163.58001288 349.90837115 -174 357 C-174.86262451 357.5887793 -174.86262451 357.5887793 -175.74267578 358.18945312 C-183.67408235 363.55753134 -191.9305436 368.32817775 -200.25 373.0625 C-201.27561035 373.64765381 -202.3012207 374.23280762 -203.35791016 374.83569336 C-204.31745605 375.37589111 -205.27700195 375.91608887 -206.265625 376.47265625 C-207.12961914 376.96000244 -207.99361328 377.44734863 -208.88378906 377.94946289 C-211 379 -211 379 -213 379 C-213.97159933 371.31395526 -214.10920422 363.74136601 -214 356 C-213.34 356.33 -212.68 356.66 -212 357 C-212.020625 358.093125 -212.04125 359.18625 -212.0625 360.3125 C-212.18544452 363.94384191 -212.18544452 363.94384191 -211 367 C-205.19972392 363.54310707 -199.40999991 360.06912484 -193.62841797 356.58105469 C-191.37339073 355.22460323 -189.11170958 353.88035022 -186.84765625 352.5390625 C-164.54979804 339.1580685 -144.72136921 321.94067434 -126 304 C-125.4436084 303.46697266 -124.8872168 302.93394531 -124.31396484 302.38476562 C-117.3391799 295.66096326 -110.98951587 288.62572467 -105 281 C-103.45146164 279.04170564 -101.90011363 277.08571722 -100.34570312 275.13208008 C-99.30953973 273.82879071 -98.27678117 272.52278442 -97.24804688 271.21362305 C-93.58495795 266.59223949 -89.9475659 262.29837727 -85 259 C-85 259.99 -85 260.98 -85 262 C-80.33550575 255.06116392 -75.69290106 248.10806034 -71.07714844 241.13671875 C-69.81720509 239.23406805 -68.55536615 237.33266833 -67.29003906 235.43359375 C-49.41184783 208.49666317 -35.93110753 178.93443886 -25.76757812 148.29101562 C-25.01852207 146.05528343 -24.2404684 143.83187598 -23.453125 141.609375 C-16.63397039 122.15382923 -12.32701386 102.00266306 -8.52294922 81.77001953 C-8.07247592 79.38389904 -7.60318646 77.0025502 -7.12890625 74.62109375 C-4.8697193 62.75290739 -3.98308983 50.72884867 -3.00146484 38.70141602 C-2.9418457 37.97622269 -2.88222656 37.25102936 -2.82080078 36.50386047 C-2.65803913 34.50834439 -2.4995401 32.51248196 -2.34130859 30.51660156 C-2.02962007 27.30518413 -1.53255309 24.180126 -1 21 C-0.86428399 19.27555142 -0.75826769 17.54848076 -0.68359375 15.8203125 C-0.64169922 14.8921875 -0.59980469 13.9640625 -0.55664062 13.0078125 C-0.51732422 12.05648438 -0.47800781 11.10515625 -0.4375 10.125 C-0.37272461 8.66320312 -0.37272461 8.66320312 -0.30664062 7.171875 C-0.20117726 4.78137198 -0.09905825 2.39077556 0 0 Z " fill="#013EAD" transform="translate(725,366)"/>
<path d="M0 0 C22.51345909 2.2817695 40.32371807 13.83284757 54.58203125 31.09375 C72.00263612 52.73132473 77.48671062 73.63604731 77 101 C72.1071496 101.14867251 67.21562188 101.25736293 62.32104492 101.32958984 C60.65740043 101.35970545 58.99391398 101.4006085 57.33081055 101.45263672 C54.93498746 101.52569321 52.54126747 101.55950481 50.14453125 101.5859375 C49.4047554 101.61690521 48.66497955 101.64787292 47.90278625 101.67977905 C45.03678396 101.6816336 42.72093439 101.58526445 40.44076538 99.73419189 C35.91548901 94.44611571 34.16810473 88.87420846 32.6875 82.25 C29.72766512 69.88377886 22.77477782 59.75243678 12 53 C3.73788525 48.73984708 -3.85013625 45.61504797 -13.25 45.6875 C-14.37825195 45.69487183 -14.37825195 45.69487183 -15.52929688 45.70239258 C-21.42606328 45.8261942 -26.56083413 46.61065214 -32 49 C-32.7425 49.31710937 -33.485 49.63421875 -34.25 49.9609375 C-45.3205225 55.38088081 -52.57653887 64.68729704 -57 76 C-58.99229208 81.92153478 -59.37732249 87.31104839 -59.56640625 93.47851562 C-59.79699046 98.79699046 -59.79699046 98.79699046 -62 101 C-66.48407883 101.51717422 -70.98310682 101.54205925 -75.49316406 101.59033203 C-77.72973356 101.62468868 -79.9603199 101.71238892 -82.1953125 101.80078125 C-92.62419063 102.02586284 -92.62419063 102.02586284 -96.35351562 99.24511719 C-98.39769104 96.58961081 -100 94.41716832 -100 91 C-99.12674072 90.97494385 -98.25348145 90.9498877 -97.35375977 90.92407227 C-94.12397448 90.82912291 -90.89435846 90.72987971 -87.66479492 90.62768555 C-86.26510801 90.58428566 -84.86536641 90.54261436 -83.46557617 90.50268555 C-81.45738505 90.44510555 -79.44938851 90.38086 -77.44140625 90.31640625 C-76.23170166 90.27974854 -75.02199707 90.24309082 -73.77563477 90.20532227 C-71.09294544 90.31061734 -71.09294544 90.31061734 -70 89 C-69.86171797 87.10872729 -69.72684154 85.21714247 -69.609375 83.32446289 C-68.47078985 67.51203814 -61.95575794 54.54066065 -50 44 C-46.80289795 41.65742292 -43.54725541 39.75943868 -40 38 C-39.22527344 37.60039062 -38.45054687 37.20078125 -37.65234375 36.7890625 C-32.83097789 34.45694385 -28.36979077 33.20786287 -23 33 C-21.85015625 32.9484375 -20.7003125 32.896875 -19.515625 32.84375 C-5.23818868 32.49971539 6.61444826 36.1254624 17.83984375 45.328125 C23.36523314 50.61255756 27.57555185 56.1726411 31 63 C31.38929688 63.75539063 31.77859375 64.51078125 32.1796875 65.2890625 C35.21010915 71.90290244 35.89708923 78.59581759 36.60546875 85.75390625 C36.64306703 88.84860939 36.64306703 88.84860939 38 90 C40.07262076 90.08767112 42.14820294 90.10695873 44.22265625 90.09765625 C45.48271484 90.09443359 46.74277344 90.09121094 48.04101562 90.08789062 C49.38151109 90.07953403 50.72200588 90.07106907 52.0625 90.0625 C53.40689942 90.0574866 54.7513006 90.05292342 56.09570312 90.04882812 C59.39717941 90.03699488 62.69856803 90.02050971 66 90 C66.36992603 64.55730985 58.71226506 45.18912181 42 26 C31.09268297 15.73658541 18.11338492 9.46137396 4 5 C4 4.34 4 3.68 4 3 C2.68 3 1.36 3 0 3 C0 2.01 0 1.02 0 0 Z " fill="#0551B5" transform="translate(529,327)"/>
<path d="M0 0 C2.42388787 2.42388787 2.82265797 4.23141525 3.8125 7.5 C12.27599096 33.38469134 32.74907349 42.44687737 55.39453125 54.4765625 C60.49087711 57.18425069 65.55092365 59.95021927 70.59765625 62.74902344 C92.57357005 75.92669938 92.57357005 75.92669938 117 82 C116.34 82.66 115.68 83.32 115 84 C114.75684344 86.66949409 114.75684344 86.66949409 114.875 89.625 C114.89304687 90.62789062 114.91109375 91.63078125 114.9296875 92.6640625 C114.95289063 93.43492187 114.97609375 94.20578125 115 95 C116.98 95.495 116.98 95.495 119 96 C112.95007264 98.38103577 105.71487998 94.30105859 100 92 C89.67515519 87.49394084 79.86977665 81.78584971 70.01147461 76.36206055 C64.88799744 73.5486369 59.74670276 70.82619001 54.5 68.25 C43.15779645 62.66010732 32.33689473 56.29747492 22 49 C21.10152344 48.37480469 20.20304687 47.74960937 19.27734375 47.10546875 C9.04546783 39.52801615 2.71422341 28.40890584 0 16 C-0.06926968 13.24029592 -0.0941736 10.50803958 -0.0625 7.75 C-0.05798828 7.00492188 -0.05347656 6.25984375 -0.04882812 5.4921875 C-0.03709246 3.6614236 -0.0191585 1.83070127 0 0 Z " fill="#043B9F" transform="translate(397,560)"/>
<path d="M0 0 C1.29292969 -0.00257813 2.58585938 -0.00515625 3.91796875 -0.0078125 C4.59263184 -0.00362305 5.26729492 0.00056641 5.96240234 0.00488281 C8.02341157 0.0155843 10.08354919 0.00498557 12.14453125 -0.0078125 C13.43746094 -0.00523437 14.73039063 -0.00265625 16.0625 0 C17.25423828 0.00225586 18.44597656 0.00451172 19.67382812 0.00683594 C22.53125 0.265625 22.53125 0.265625 24.53125 2.265625 C24.77416992 5.23071289 24.77416992 5.23071289 24.76171875 8.98828125 C24.76126053 9.64896103 24.76080231 10.30964081 24.7603302 10.99034119 C24.75730921 12.38656409 24.74942742 13.78278367 24.73706055 15.17895508 C24.71879196 17.32319998 24.71655094 19.46701349 24.71679688 21.61132812 C24.67868212 32.11819288 24.67868212 32.11819288 23.53125 33.265625 C21.25177208 33.3658343 18.96917865 33.39643803 16.6875 33.3984375 C16.00320923 33.39939423 15.31891846 33.40035095 14.6138916 33.40133667 C13.16463123 33.4020183 11.71536782 33.40016523 10.26611328 33.39599609 C8.04062072 33.39064752 5.81532999 33.3959416 3.58984375 33.40234375 C2.18489539 33.40168297 0.77994715 33.4004018 -0.625 33.3984375 C-1.91212891 33.39730957 -3.19925781 33.39618164 -4.52539062 33.39501953 C-7.46875 33.265625 -7.46875 33.265625 -8.46875 32.265625 C-8.68684756 28.00814074 -8.65454161 23.74516776 -8.65405273 19.48266602 C-8.65623743 17.340455 -8.67438512 15.19876029 -8.69335938 13.05664062 C-8.69629359 11.7005226 -8.6982782 10.34440212 -8.69921875 8.98828125 C-8.70332764 7.74828369 -8.70743652 6.50828613 -8.71166992 5.23071289 C-8.23627147 -0.5720149 -4.99753563 0.00945991 0 0 Z " fill="#0168DC" transform="translate(793.46875,289.734375)"/>
<path d="M0 0 C0.99 1.98 0.99 1.98 2 4 C2.66 3.67 3.32 3.34 4 3 C-4.91177714 73.20741502 -32.79890783 140.29228239 -75 197 C-75.33 196.01 -75.66 195.02 -76 194 C-77.485 194.99 -77.485 194.99 -79 196 C-77.71968276 192.48499619 -76.22767784 189.67670731 -73.99609375 186.6796875 C-73.42052734 185.89722656 -72.84496094 185.11476563 -72.25195312 184.30859375 C-71.65318359 183.50550781 -71.05441406 182.70242188 -70.4375 181.875 C-69.24520408 180.27082004 -68.05624543 178.66415275 -66.87109375 177.0546875 C-66.08109985 175.99483643 -66.08109985 175.99483643 -65.27514648 174.91357422 C-63.82893276 172.92499583 -63.82893276 172.92499583 -63 170 C-62.34 170 -61.68 170 -61 170 C-60.58814453 168.91936279 -60.58814453 168.91936279 -60.16796875 167.81689453 C-59.03026414 165.07299072 -57.73969594 162.53334256 -56.3125 159.9296875 C-55.78374268 158.96087646 -55.25498535 157.99206543 -54.71020508 156.99389648 C-54.1458374 155.96466064 -53.58146973 154.9354248 -53 153.875 C-51.81581714 151.69693477 -50.63222953 149.51854582 -49.44921875 147.33984375 C-47.82649483 144.35540595 -46.20316081 141.37136101 -44.57275391 138.39111328 C-21.51609826 96.15657246 -6.08447192 47.84607467 0 0 Z " fill="#0062D6" transform="translate(715,432)"/>
<path d="M0 0 C1.06734375 -0.00257813 2.1346875 -0.00515625 3.234375 -0.0078125 C4.91273438 0.00378906 4.91273438 0.00378906 6.625 0.015625 C7.74390625 0.00789063 8.8628125 0.00015625 10.015625 -0.0078125 C11.08296875 -0.00523437 12.1503125 -0.00265625 13.25 0 C14.23226562 0.00225586 15.21453125 0.00451172 16.2265625 0.00683594 C18.625 0.265625 18.625 0.265625 20.625 2.265625 C20.86791992 4.77172852 20.86791992 4.77172852 20.85546875 7.89453125 C20.85353516 9.01150391 20.85160156 10.12847656 20.84960938 11.27929688 C20.83124023 13.0359668 20.83124023 13.0359668 20.8125 14.828125 C20.81185547 16.00310547 20.81121094 17.17808594 20.81054688 18.38867188 C20.76512141 27.12550359 20.76512141 27.12550359 19.625 28.265625 C15.48537717 28.51863739 11.33394004 28.45085049 7.1875 28.453125 C6.01638672 28.46537109 4.84527344 28.47761719 3.63867188 28.49023438 C2.52169922 28.49216797 1.40472656 28.49410156 0.25390625 28.49609375 C-0.77661865 28.50020264 -1.80714355 28.50431152 -2.86889648 28.50854492 C-5.375 28.265625 -5.375 28.265625 -7.375 26.265625 C-7.63378906 23.8671875 -7.63378906 23.8671875 -7.640625 20.890625 C-7.64320313 19.82328125 -7.64578125 18.7559375 -7.6484375 17.65625 C-7.63683594 15.97789062 -7.63683594 15.97789062 -7.625 14.265625 C-7.63273438 13.14671875 -7.64046875 12.0278125 -7.6484375 10.875 C-7.64585937 9.80765625 -7.64328125 8.7403125 -7.640625 7.640625 C-7.63836914 6.65835937 -7.63611328 5.67609375 -7.63378906 4.6640625 C-7.10415251 -0.24456913 -4.21168741 0.00967251 0 0 Z " fill="#018CEE" transform="translate(747.375,262.734375)"/>
<path d="M0 0 C1.12341797 -0.01224609 2.24683594 -0.02449219 3.40429688 -0.03710938 C5.01208008 -0.04000977 5.01208008 -0.04000977 6.65234375 -0.04296875 C8.13528931 -0.04913208 8.13528931 -0.04913208 9.64819336 -0.05541992 C12.0625 0.1875 12.0625 0.1875 14.0625 2.1875 C15.51872247 11.86188235 15.03352452 21.49219363 14.0625 31.1875 C13.4025 29.8675 12.7425 28.5475 12.0625 27.1875 C11.34594238 27.19797363 10.62938477 27.20844727 9.89111328 27.21923828 C6.65661095 27.26071299 3.42216447 27.28679892 0.1875 27.3125 C-0.94042969 27.32925781 -2.06835938 27.34601563 -3.23046875 27.36328125 C-4.84501953 27.37294922 -4.84501953 27.37294922 -6.4921875 27.3828125 C-7.98468018 27.39852295 -7.98468018 27.39852295 -9.50732422 27.41455078 C-11.9375 27.1875 -11.9375 27.1875 -13.9375 25.1875 C-14.16455078 23.21630859 -14.16455078 23.21630859 -14.1328125 20.8359375 C-14.12636719 19.98515625 -14.11992188 19.134375 -14.11328125 18.2578125 C-14.09652344 17.36835938 -14.07976563 16.47890625 -14.0625 15.5625 C-14.05347656 14.6653125 -14.04445313 13.768125 -14.03515625 12.84375 C-14.0115497 10.62473414 -13.9786231 8.40624923 -13.9375 6.1875 C-14.5975 5.8575 -15.2575 5.5275 -15.9375 5.1875 C-15.2775 5.1875 -14.6175 5.1875 -13.9375 5.1875 C-13.7209375 4.2284375 -13.7209375 4.2284375 -13.5 3.25 C-12.04942626 -2.06877038 -4.54686759 0.0025997 0 0 Z " fill="#0575E1" transform="translate(702.9375,276.8125)"/>
<path d="M0 0 C1.1653125 -0.00128906 2.330625 -0.00257813 3.53125 -0.00390625 C4.7584375 -0.00003906 5.985625 0.00382813 7.25 0.0078125 C9.09078125 0.00201172 9.09078125 0.00201172 10.96875 -0.00390625 C12.71671875 -0.00197266 12.71671875 -0.00197266 14.5 0 C15.57765625 0.00112793 16.6553125 0.00225586 17.765625 0.00341797 C20.25 0.1328125 20.25 0.1328125 21.25 1.1328125 C21.34959621 2.97440273 21.38080411 4.81978217 21.3828125 6.6640625 C21.38474609 8.34435547 21.38474609 8.34435547 21.38671875 10.05859375 C21.38285156 11.23808594 21.37898437 12.41757813 21.375 13.6328125 C21.38080078 15.40205078 21.38080078 15.40205078 21.38671875 17.20703125 C21.38542969 18.32722656 21.38414062 19.44742188 21.3828125 20.6015625 C21.38168457 21.63732422 21.38055664 22.67308594 21.37939453 23.74023438 C21.25 26.1328125 21.25 26.1328125 20.25 27.1328125 C16.11037717 27.38582489 11.95894004 27.31803799 7.8125 27.3203125 C6.64138672 27.33255859 5.47027344 27.34480469 4.26367188 27.35742188 C3.14669922 27.35935547 2.02972656 27.36128906 0.87890625 27.36328125 C-0.15161865 27.36739014 -1.18214355 27.37149902 -2.24389648 27.37573242 C-4.75 27.1328125 -4.75 27.1328125 -6.75 25.1328125 C-6.99291992 22.71850586 -6.99291992 22.71850586 -6.98046875 19.72265625 C-6.97853516 18.65080078 -6.97660156 17.57894531 -6.97460938 16.47460938 C-6.96236328 15.35119141 -6.95011719 14.22777344 -6.9375 13.0703125 C-6.93685547 11.94302734 -6.93621094 10.81574219 -6.93554688 9.65429688 C-6.88327485 0.00720438 -6.88327485 0.00720438 0 0 Z " fill="#028FEF" transform="translate(786.75,224.8671875)"/>
<path d="M0 0 C3.95831809 -0.02892857 7.91660917 -0.04677427 11.875 -0.0625 C13.56689453 -0.07506836 13.56689453 -0.07506836 15.29296875 -0.08789062 C16.36933594 -0.09111328 17.44570313 -0.09433594 18.5546875 -0.09765625 C19.54968262 -0.10289307 20.54467773 -0.10812988 21.56982422 -0.11352539 C24 0 24 0 26 1 C26.05784708 5.12494151 26.09354407 9.24977944 26.125 13.375 C26.15013672 15.1384375 26.15013672 15.1384375 26.17578125 16.9375 C26.18222656 18.05898438 26.18867187 19.18046875 26.1953125 20.3359375 C26.20578613 21.37282715 26.21625977 22.4097168 26.22705078 23.47802734 C26 26 26 26 24 28 C21.69335938 28.25878906 21.69335938 28.25878906 18.84375 28.265625 C17.31041016 28.26949219 17.31041016 28.26949219 15.74609375 28.2734375 C14.67488281 28.26570313 13.60367188 28.25796875 12.5 28.25 C10.89318359 28.26160156 10.89318359 28.26160156 9.25390625 28.2734375 C8.23167969 28.27085937 7.20945312 28.26828125 6.15625 28.265625 C5.21587891 28.26336914 4.27550781 28.26111328 3.30664062 28.25878906 C1 28 1 28 -1 26 C-1.24291992 23.6015625 -1.24291992 23.6015625 -1.23046875 20.625 C-1.22853516 19.55765625 -1.22660156 18.4903125 -1.22460938 17.390625 C-1.21236328 16.27171875 -1.20011719 15.1528125 -1.1875 14 C-1.18685547 12.88109375 -1.18621094 11.7621875 -1.18554688 10.609375 C-1.14028159 2.28056319 -1.14028159 2.28056319 0 0 Z " fill="#09ABF9" transform="translate(633,338)"/>
<path d="M0 0 C4.76925585 3.39038936 8.08016008 7.80774011 11.296875 12.6328125 C11.4921875 15.11328125 11.4921875 15.11328125 11.421875 17.8203125 C11.40382813 18.72136719 11.38578125 19.62242187 11.3671875 20.55078125 C11.34398437 21.23785156 11.32078125 21.92492187 11.296875 22.6328125 C11.10351562 21.67375 11.10351562 21.67375 10.90625 20.6953125 C10.51290406 18.48848805 10.51290406 18.48848805 8.546875 17.6328125 C7.804375 17.3028125 7.061875 16.9728125 6.296875 16.6328125 C5.513125 15.9934375 4.729375 15.3540625 3.921875 14.6953125 C-1.79712369 10.20181353 -6.37199218 8.96371575 -13.59375 9.15234375 C-19.40818771 10.05080586 -24.19243698 12.91567533 -28.17578125 17.2265625 C-32.19135156 22.86851075 -32.14214638 28.9658134 -31.703125 35.6328125 C-31.20558981 38.07722451 -30.5250859 40.2696749 -29.703125 42.6328125 C-34.78575079 40.817589 -36.73359003 36.66883595 -38.953125 32.0078125 C-40.79539054 23.71761759 -40.57742197 16.35640465 -36.31640625 8.890625 C-27.61650725 -3.28502058 -13.34535974 -7.43770049 0 0 Z " fill="#06308C" transform="translate(525.703125,481.3671875)"/>
<path d="M0 0 C1.61358398 -0.01836914 1.61358398 -0.01836914 3.25976562 -0.03710938 C4.28650391 -0.03904297 5.31324219 -0.04097656 6.37109375 -0.04296875 C7.79119751 -0.04913208 7.79119751 -0.04913208 9.23999023 -0.05541992 C11.5625 0.1875 11.5625 0.1875 13.5625 2.1875 C13.82128906 4.5859375 13.82128906 4.5859375 13.828125 7.5625 C13.83199219 9.16351563 13.83199219 9.16351563 13.8359375 10.796875 C13.82820312 11.91578125 13.82046875 13.0346875 13.8125 14.1875 C13.82023438 15.30640625 13.82796875 16.4253125 13.8359375 17.578125 C13.83335937 18.64546875 13.83078125 19.7128125 13.828125 20.8125 C13.82586914 21.79476563 13.82361328 22.77703125 13.82128906 23.7890625 C13.5625 26.1875 13.5625 26.1875 11.5625 28.1875 C9.23999023 28.43041992 9.23999023 28.43041992 6.37109375 28.41796875 C5.34435547 28.41603516 4.31761719 28.41410156 3.25976562 28.41210938 C2.18404297 28.39986328 1.10832031 28.38761719 0 28.375 C-1.07958984 28.37435547 -2.15917969 28.37371094 -3.27148438 28.37304688 C-11.29735402 28.32764598 -11.29735402 28.32764598 -12.4375 27.1875 C-12.53721786 25.27291718 -12.56830589 23.35467683 -12.5703125 21.4375 C-12.57160156 20.2721875 -12.57289063 19.106875 -12.57421875 17.90625 C-12.57035156 16.6790625 -12.56648437 15.451875 -12.5625 14.1875 C-12.56636719 12.9603125 -12.57023438 11.733125 -12.57421875 10.46875 C-12.57292969 9.3034375 -12.57164062 8.138125 -12.5703125 6.9375 C-12.56918457 5.85984375 -12.56805664 4.7821875 -12.56689453 3.671875 C-12.26094653 -2.20232667 -4.54256598 0.00271198 0 0 Z " fill="#F9FBFD" transform="translate(682.4375,372.8125)"/>
<path d="M0 0 C1.61358398 -0.01836914 1.61358398 -0.01836914 3.25976562 -0.03710938 C4.28650391 -0.03904297 5.31324219 -0.04097656 6.37109375 -0.04296875 C7.79119751 -0.04913208 7.79119751 -0.04913208 9.23999023 -0.05541992 C11.5625 0.1875 11.5625 0.1875 13.5625 2.1875 C14.01545333 5.81394504 13.88654802 9.47351738 13.875 13.125 C13.89111328 14.14013672 13.90722656 15.15527344 13.92382812 16.20117188 C13.92447266 17.17505859 13.92511719 18.14894531 13.92578125 19.15234375 C13.92876221 20.0455835 13.93174316 20.93882324 13.93481445 21.85913086 C13.5625 24.1875 13.5625 24.1875 12.34082031 25.97949219 C10.01835034 27.55713928 8.54191454 27.56057072 5.74609375 27.55078125 C4.81732422 27.55013672 3.88855469 27.54949219 2.93164062 27.54882812 C1.96419922 27.53271484 0.99675781 27.51660156 0 27.5 C-0.97130859 27.50322266 -1.94261719 27.50644531 -2.94335938 27.50976562 C-10.17047991 27.45452009 -10.17047991 27.45452009 -12.4375 25.1875 C-12.68041992 22.77319336 -12.68041992 22.77319336 -12.66796875 19.77734375 C-12.66603516 18.70548828 -12.66410156 17.63363281 -12.66210938 16.52929688 C-12.64986328 15.40587891 -12.63761719 14.28246094 -12.625 13.125 C-12.62435547 11.99771484 -12.62371094 10.87042969 -12.62304688 9.70898438 C-12.56345486 -1.28905382 -10.47332339 0.00625273 0 0 Z " fill="#F8F9FC" transform="translate(720.4375,338.8125)"/>
<path d="M0 0 C0.9583374 0.00523682 1.9166748 0.01047363 2.90405273 0.01586914 C4.45576172 0.02070313 4.45576172 0.02070313 6.03881836 0.02563477 C7.12743164 0.03401367 8.21604492 0.04239258 9.33764648 0.05102539 C10.97636719 0.05779297 10.97636719 0.05779297 12.64819336 0.06469727 C15.35723144 0.07652713 18.06616248 0.09300996 20.77514648 0.11352539 C22.78011373 4.12345988 22.00392532 9.20482952 22.02514648 13.61352539 C22.04577148 14.68473633 22.06639648 15.75594727 22.08764648 16.85961914 C22.09280273 17.8818457 22.09795898 18.90407227 22.10327148 19.95727539 C22.11729004 21.36783203 22.11729004 21.36783203 22.1315918 22.80688477 C21.95515137 23.94867188 21.95515137 23.94867188 21.77514648 25.11352539 C18.61049508 27.22329299 17.80120876 27.36905144 14.17749023 27.37915039 C12.85201172 27.38301758 12.85201172 27.38301758 11.49975586 27.38696289 C10.58000977 27.37922852 9.66026367 27.37149414 8.71264648 27.36352539 C7.7890332 27.37125977 6.86541992 27.37899414 5.91381836 27.38696289 C4.59027344 27.3830957 4.59027344 27.3830957 3.23999023 27.37915039 C2.43166748 27.37689453 1.62334473 27.37463867 0.79052734 27.37231445 C-1.22485352 27.11352539 -1.22485352 27.11352539 -3.22485352 25.11352539 C-3.46777344 22.69921875 -3.46777344 22.69921875 -3.45532227 19.70336914 C-3.45338867 18.63151367 -3.45145508 17.5596582 -3.44946289 16.45532227 C-3.4372168 15.3319043 -3.4249707 14.20848633 -3.41235352 13.05102539 C-3.41170898 11.92374023 -3.41106445 10.79645508 -3.41040039 9.63500977 C-3.35912257 0.17140261 -3.35912257 0.17140261 0 0 Z " fill="#F9FBFD" transform="translate(678.224853515625,311.886474609375)"/>
<path d="M0 0 C0.99 0 1.98 0 3 0 C4.22366975 3.67100926 3.68507851 4.34225283 2.11328125 7.76953125 C1.45743042 9.20897095 1.45743042 9.20897095 0.78833008 10.67749023 C0.05779419 12.22932007 0.05779419 12.22932007 -0.6875 13.8125 C-1.44027222 15.42523804 -1.44027222 15.42523804 -2.20825195 17.07055664 C-14.0428766 42.10823606 -28.46563961 65.78195322 -45 88 C-45.33 87.01 -45.66 86.02 -46 85 C-47.485 85.99 -47.485 85.99 -49 87 C-47.71968276 83.48499619 -46.22767784 80.67670731 -43.99609375 77.6796875 C-43.42052734 76.89722656 -42.84496094 76.11476563 -42.25195312 75.30859375 C-41.35379883 74.10396484 -41.35379883 74.10396484 -40.4375 72.875 C-39.24520408 71.27082004 -38.05624543 69.66415275 -36.87109375 68.0546875 C-36.34443115 67.34812012 -35.81776855 66.64155273 -35.27514648 65.91357422 C-33.82893276 63.92499583 -33.82893276 63.92499583 -33 61 C-32.34 61 -31.68 61 -31 61 C-30.72542969 60.2795752 -30.45085938 59.55915039 -30.16796875 58.81689453 C-29.03026414 56.07299072 -27.73969594 53.53334256 -26.3125 50.9296875 C-25.78342041 49.9600708 -25.25434082 48.9904541 -24.70922852 47.99145508 C-24.14518311 46.9630249 -23.5811377 45.93459473 -23 44.875 C-21.82083537 42.71005964 -20.64245917 40.54468969 -19.46484375 38.37890625 C-18.87944824 37.3027002 -18.29405273 36.22649414 -17.69091797 35.11767578 C-11.42955273 23.57311412 -5.30847077 12.01958626 0 0 Z " fill="#0053CB" transform="translate(685,541)"/>
<path d="M0 0 C0.33 0.66 0.66 1.32 1 2 C2.32 2.66 3.64 3.32 5 4 C5 18.19 5 32.38 5 47 C12.59 47 20.18 47 28 47 C28 47.66 28 48.32 28 49 C23.70838953 49.05783842 19.41687855 49.0935412 15.125 49.125 C13.90167969 49.14175781 12.67835938 49.15851562 11.41796875 49.17578125 C9.66806641 49.18544922 9.66806641 49.18544922 7.8828125 49.1953125 C6.80402832 49.20578613 5.72524414 49.21625977 4.61376953 49.22705078 C2 49 2 49 0 47 C-0.24050903 44.97518921 -0.24050903 44.97518921 -0.22705078 42.45849609 C-0.22689972 41.51767181 -0.22674866 40.57684753 -0.22659302 39.60751343 C-0.21627045 38.58976837 -0.20594788 37.57202332 -0.1953125 36.5234375 C-0.1924826 35.48305328 -0.18965271 34.44266907 -0.18673706 33.37075806 C-0.17551704 30.03872306 -0.15040915 26.70695414 -0.125 23.375 C-0.11497256 21.11979554 -0.1058463 18.86458688 -0.09765625 16.609375 C-0.07557178 11.07282546 -0.04207639 5.53643173 0 0 Z " fill="#082D86" transform="translate(497,526)"/>
<path d="M0 0 C0.33 0 0.66 0 1 0 C1 1.98 1 3.96 1 6 C1.98097656 6.12246094 2.96195313 6.24492187 3.97265625 6.37109375 C8.20736792 6.97605256 12.30010373 7.99124369 16.4375 9.0625 C17.16904297 9.24876953 17.90058594 9.43503906 18.65429688 9.62695312 C20.43703198 10.0813758 22.21863787 10.54022466 24 11 C24 13.97 24 16.94 24 20 C16.29042025 18.50411139 8.64468047 16.79733867 1 15 C1 16.98 1 18.96 1 21 C0.67 21 0.34 21 0 21 C0 14.07 0 7.14 0 0 Z " fill="#2DA8F2" transform="translate(700,315)"/>
<path d="M0 0 C5.93820759 1.83130854 11.73556695 6.55256918 15.140625 11.66015625 C13.490625 13.64015625 11.840625 15.62015625 10.140625 17.66015625 C9.46 16.93828125 8.779375 16.21640625 8.078125 15.47265625 C3.06348129 10.48626406 -2.28701686 7.20862165 -8.859375 4.66015625 C-6.34585295 1.44284803 -4.23059884 -0.21152994 0 0 Z " fill="#0450BB" transform="translate(611.859375,430.33984375)"/>
<path d="M0 0 C3.66172475 0.62678171 6.8818995 1.64451846 10.3125 3.0625 C11.19550781 3.42472656 12.07851563 3.78695313 12.98828125 4.16015625 C13.98408203 4.57587891 13.98408203 4.57587891 15 5 C15 7.64 15 10.28 15 13 C8.07 11.35 1.14 9.7 -6 8 C-6 7.67 -6 7.34 -6 7 C-4.35 7 -2.7 7 -1 7 C-0.67 4.69 -0.34 2.38 0 0 Z " fill="#42C3FA" transform="translate(660,308)"/>
<path d="M0 0 C1.32 0 2.64 0 4 0 C4 3.63 4 7.26 4 11 C4.66 11.33 5.32 11.66 6 12 C-0.93 12 -7.86 12 -15 12 C-15 11.67 -15 11.34 -15 11 C-10.38 10.67 -5.76 10.34 -1 10 C-0.67 6.7 -0.34 3.4 0 0 Z " fill="#0E73D4" transform="translate(725,327)"/>
<path d="M0 0 C7.92 0 15.84 0 24 0 C24.33 0.66 24.66 1.32 25 2 C23.92516357 2.029729 23.92516357 2.029729 22.82861328 2.06005859 C19.5936937 2.15509519 16.35943906 2.26486019 13.125 2.375 C11.43310547 2.42140625 11.43310547 2.42140625 9.70703125 2.46875 C8.63066406 2.50742187 7.55429687 2.54609375 6.4453125 2.5859375 C5.45031738 2.6173584 4.45532227 2.6487793 3.43017578 2.68115234 C0.82145483 2.77247083 0.82145483 2.77247083 -1 5 C-0.67 3.35 -0.34 1.7 0 0 Z " fill="#33B0F5" transform="translate(742,263)"/>
<path d="M0 0 C0.66 0 1.32 0 2 0 C0.55575365 3.23861303 -1.25772247 5.61969163 -3.625 8.25 C-4.25664062 8.95640625 -4.88828125 9.6628125 -5.5390625 10.390625 C-6.02117187 10.92171875 -6.50328125 11.4528125 -7 12 C-7.99 11.67 -8.98 11.34 -10 11 C-8.38150935 9.16053461 -6.75581169 7.32848583 -5.125 5.5 C-4.66480469 4.97535156 -4.20460938 4.45070313 -3.73046875 3.91015625 C-2.52827924 2.56858245 -1.26754054 1.28000815 0 0 Z " fill="#1459B9" transform="translate(479,371)"/>
<path d="M0 0 C2.3129482 2.3129482 2.49580975 3.47904875 3.125 6.625 C3.29257812 7.44226563 3.46015625 8.25953125 3.6328125 9.1015625 C3.81457031 10.04128906 3.81457031 10.04128906 4 11 C2.68 11 1.36 11 0 11 C0 7.37 0 3.74 0 0 Z " fill="#13429D" transform="translate(397,560)"/>
</svg>
